<svg xmlns="http://www.w3.org/2000/svg" width="28.808" height="18.825" viewBox="0 0 28.808 18.825">
  <g id="그룹_14512" data-name="그룹 14512" transform="translate(0.5 0.5)">
    <path id="패스_14397" data-name="패스 14397" d="M572.258,318.244a1.564,1.564,0,0,1,1.457-1.652v-1.533a1.665,1.665,0,0,1,0-3.3v-1.109a1.234,1.234,0,0,0-1.147-1.3H547.054a1.235,1.235,0,0,0-1.147,1.3v1.109a1.665,1.665,0,0,1,0,3.3v1.533a1.665,1.665,0,0,1,0,3.3v1.168a1.235,1.235,0,0,0,1.147,1.3h25.514a1.234,1.234,0,0,0,1.147-1.3V319.9A1.564,1.564,0,0,1,572.258,318.244Z" transform="translate(-545.907 -304.539)" fill="none" stroke="#fff" stroke-linejoin="round" stroke-width="1"/>
    <path id="패스_14398" data-name="패스 14398" d="M3.568-4.015H2.278V.733H1.41V-4.015H.137v-.951H3.568ZM4.986.733H4.118v-5.7h.868ZM9.1-1.165A2.357,2.357,0,0,1,8.6.283,1.5,1.5,0,0,1,7.4.812,1.437,1.437,0,0,1,6.127.074a3.786,3.786,0,0,1-.464-2.026V-2.3a4.475,4.475,0,0,1,.214-1.448,2.113,2.113,0,0,1,.612-.961,1.393,1.393,0,0,1,.924-.335,1.461,1.461,0,0,1,1.175.528A2.533,2.533,0,0,1,9.1-3.033H8.235a1.442,1.442,0,0,0-.227-.8.71.71,0,0,0-.595-.249.693.693,0,0,0-.65.421,3.042,3.042,0,0,0-.221,1.306v.431A3.279,3.279,0,0,0,6.749-.574.684.684,0,0,0,7.4-.148.721.721,0,0,0,8-.4a1.351,1.351,0,0,0,.227-.769Zm1.889-.388L10.535-.9V.733H9.667v-5.7h.868v2.584l.382-.709L11.99-4.967h1.068l-1.5,2.533L13.1.733H12.068Zm4.976-.184H14.3V-.21h1.956V.733H13.428v-5.7h2.818v.951H14.3v1.358h1.667ZM19.99-4.015H18.7V.733h-.868V-4.015H16.559v-.951H19.99Z" transform="translate(4.211 13.321)" fill="#fff"/>
    <path id="빼기_46" data-name="빼기 46" d="M19.531,4.806H.559A1.808,1.808,0,0,0,.98,4.036,1.771,1.771,0,0,0,.825,2.71,1.364,1.364,0,0,0,0,2.063L.288.991A1.27,1.27,0,0,1,1.47,0a1.011,1.011,0,0,1,.264.035L19.531,4.8Z" transform="translate(3.228)" fill="none" stroke="#fff" stroke-linejoin="round" stroke-width="1"/>
  </g>
</svg>
