<svg xmlns="http://www.w3.org/2000/svg" xmlns:xlink="http://www.w3.org/1999/xlink" width="48" height="58" viewBox="0 0 48 58">
  <defs>
    <filter id="다각형_7" x="0" y="0" width="48" height="58" filterUnits="userSpaceOnUse">
      <feOffset dy="3" input="SourceAlpha"/>
      <feGaussianBlur stdDeviation="3" result="blur"/>
      <feFlood flood-opacity="0.769"/>
      <feComposite operator="in" in2="blur"/>
      <feComposite in="SourceGraphic"/>
    </filter>
  </defs>
  <g id="BTN_PLAY" transform="translate(-164 -118.5)">
    <g transform="matrix(1, 0, 0, 1, 164, 118.5)" filter="url(#다각형_7)">
      <g id="다각형_7-2" data-name="다각형 7" transform="translate(39 6) rotate(90)" fill="none">
        <path d="M17.5,3.744a3,3,0,0,1,4.992,0L36.891,25.336A3,3,0,0,1,34.394,30H5.606a3,3,0,0,1-2.5-4.664Z" stroke="none"/>
        <path d="M 20 4.4083251953125 C 19.80013084411621 4.4083251953125 19.42625045776367 4.466175079345703 19.16794967651367 4.853626251220703 L 4.77349853515625 26.44530487060547 C 4.473598480224609 26.89515686035156 4.638889312744141 27.31306648254395 4.723869323730469 27.47186660766602 C 4.808860778808594 27.63065528869629 5.064899444580078 28.0000057220459 5.605548858642578 28.0000057220459 L 34.39445114135742 28.0000057220459 C 34.93510055541992 28.0000057220459 35.19113922119141 27.63065528869629 35.27611923217773 27.47186660766602 C 35.36111068725586 27.31306648254395 35.52640151977539 26.89515686035156 35.22650146484375 26.44530487060547 L 20.83205032348633 4.853626251220703 C 20.57374954223633 4.466175079345703 20.19986915588379 4.4083251953125 20 4.4083251953125 M 20 2.4083251953125 C 20.95121002197266 2.4083251953125 21.90242004394531 2.853626251220703 22.49614906311035 3.744226455688477 L 36.89059829711914 25.33590698242188 C 38.21971130371094 27.32956695556641 36.79053115844727 30.0000057220459 34.39445114135742 30.0000057220459 L 5.605548858642578 30.0000057220459 C 3.209461212158203 30.0000057220459 1.780288696289062 27.32956695556641 3.109401702880859 25.33590698242188 L 17.50385093688965 3.744226455688477 C 18.09757995605469 2.853626251220703 19.04878997802734 2.4083251953125 20 2.4083251953125 Z" stroke="none" fill="rgba(255,255,255,0.8)"/>
      </g>
    </g>
  </g>
</svg>
